P3
# CREATOR: The GIMP's PNM Filter Version 1.0
20 20
255
2
1
1
65
45
43
134
101
97
153
116
112
171
136
130
186
153
148
197
166
163
205
179
178
220
202
199
227
211
209
229
214
212
221
197
192
217
188
183
216
188
181
211
180
173
202
165
158
186
147
141
157
119
118
91
65
64
0
0
0
21
12
11
99
75
72
132
98
96
149
116
112
163
128
126
178
145
144
191
159
159
170
139
140
153
122
124
185
160
160
221
205
204
224
207
203
219
194
188
216
188
182
211
179
172
201
162
156
185
146
141
160
123
121
101
72
70
0
0
0
44
26
26
118
89
86
140
109
106
158
124
123
164
127
126
162
118
118
168
124
123
179
137
136
167
125
123
146
105
104
169
129
129
210
184
181
218
194
188
216
190
184
210
180
172
203
169
164
189
155
152
163
129
127
97
69
67
0
0
0
70
50
49
136
105
102
163
133
129
178
147
144
147
105
102
91
56
55
89
64
67
127
95
98
142
96
94
155
108
103
165
121
116
199
164
158
216
190
183
209
178
171
193
160
156
168
134
133
151
118
119
146
115
116
84
59
59
0
0
0
110
85
84
148
117
115
179
150
146
196
168
164
159
124
122
72
45
50
69
71
85
67
70
84
105
77
81
136
87
84
174
132
126
200
166
158
219
197
189
181
147
142
123
87
87
101
65
65
112
81
84
102
71
73
52
31
32
0
0
0
119
89
88
152
121
119
187
155
152
206
176
173
210
182
178
188
158
155
159
127
127
141
108
111
152
114
115
178
142
137
201
170
163
207
176
166
210
182
174
109
75
74
86
45
44
115
74
72
132
91
90
133
94
95
76
53
55
0
0
0
101
75
74
152
117
116
191
154
153
211
178
176
217
188
185
219
194
189
219
197
191
215
193
186
215
190
183
213
187
177
207
177
170
208
176
168
203
169
165
122
85
85
79
63
71
45
40
46
54
37
41
70
38
39
29
15
16
0
0
0
83
58
60
147
112
111
189
151
148
210
174
171
217
186
183
223
194
191
225
201
195
226
202
197
226
202
196
218
187
177
205
169
162
210
172
164
204
167
161
155
119
122
146
113
116
92
81
93
65
55
63
14
5
6
5
1
2
0
0
0
84
61
62
146
110
111
188
148
146
204
167
163
216
178
177
221
190
187
226
199
194
227
204
200
229
207
201
209
175
167
195
156
148
212
178
169
202
163
156
154
118
119
184
145
145
171
133
131
128
95
95
74
52
56
1
0
0
0
0
0
97
73
74
151
113
114
183
144
143
200
159
155
211
173
172
220
188
185
224
198
195
227
205
200
226
204
197
197
157
153
193
153
146
203
172
166
204
169
163
159
121
120
193
153
149
194
155
150
187
146
142
142
108
112
1
1
1
0
0
0
115
86
87
156
116
117
178
137
135
192
152
147
207
168
165
217
185
181
223
197
192
226
203
196
222
197
190
169
124
119
117
79
77
122
82
82
112
77
79
145
110
109
202
160
156
200
154
152
190
143
141
127
93
97
0
0
0
0
0
0
135
102
102
164
124
124
178
138
134
188
147
143
201
162
157
212
177
171
218
189
182
223
201
192
223
198
189
215
186
177
215
185
176
168
134
129
92
59
60
153
114
111
207
164
160
200
154
152
182
136
138
76
53
57
0
0
0
0
0
0
151
113
112
171
130
128
179
142
136
188
149
144
198
159
152
207
169
160
213
182
175
217
194
186
219
194
185
207
165
158
202
155
148
215
188
177
183
151
145
190
155
148
202
160
154
191
146
145
146
106
109
12
8
9
0
0
0
0
0
0
152
115
114
171
131
129
180
143
137
189
150
147
197
159
153
202
165
157
198
162
155
162
102
101
139
47
53
131
32
39
136
34
40
141
47
51
153
91
91
183
148
142
187
147
143
163
123
125
60
39
43
0
0
0
0
0
0
0
0
0
142
109
107
165
126
124
179
141
137
188
151
145
196
159
152
200
162
155
182
136
131
107
26
34
97
24
35
98
42
52
75
31
38
70
16
22
69
15
21
146
109
109
164
126
126
104
72
77
4
1
2
0
0
0
0
0
0
0
0
0
113
87
86
153
117
117
174
136
134
183
146
140
192
155
148
198
161
152
202
165
156
172
95
97
157
38
46
175
51
63
168
52
64
147
40
52
66
14
19
114
77
77
139
105
107
32
18
21
0
0
0
0
0
0
0
0
0
0
0
0
41
29
28
119
90
88
158
120
119
177
138
133
189
150
143
199
162
154
206
172
163
200
163
154
155
94
92
127
40
43
134
33
40
118
28
34
78
30
34
161
121
117
86
63
67
2
1
1
0
0
0
0
0
0
0
0
0
0
0
0
0
0
0
35
22
22
118
86
85
162
125
123
182
143
138
194
157
149
206
172
165
214
185
174
211
182
173
201
167
159
163
119
114
130
91
89
143
108
106
120
92
93
21
12
14
0
0
0
0
0
0
0
0
0
0
0
0
0
0
0
0
0
0
0
0
0
22
12
12
101
71
70
159
122
119
181
142
136
196
159
152
213
183
174
216
189
183
211
176
168
199
158
151
180
142
137
136
106
105
48
32
34
0
0
0
0
0
0
0
0
0
0
0
0
0
0
0
0
0
0
11
3
2
0
0
0
0
0
0
5
2
2
59
38
37
132
98
96
170
131
127
193
159
152
203
169
162
197
161
154
188
148
142
152
115
115
68
47
49
4
1
2
0
0
0
0
0
0
0
0
0
0
0
0
0
0
0
0
0
0
